<?xml version="1.0" encoding="utf-8"?><!DOCTYPE svg PUBLIC "-//W3C//DTD SVG 1.1//EN" "http://www.w3.org/Graphics/SVG/1.1/DTD/svg11.dtd"><svg viewBox="0 0 800 800" xmlns="http://www.w3.org/2000/svg" xmlns:xlink="http://www.w3.org/1999/xlink"><style>:root>svg{display:none}:root>svg:target{display:block}</style><svg version="1.1" id="email" viewBox="0 0 512 512" xml:space="preserve" xmlns="http://www.w3.org/2000/svg"><style>.ast0{fill:#000}</style><path class="ast0" d="M510.746 110.361c-2.128-10.754-6.926-20.918-13.926-29.463-1.422-1.794-2.909-3.39-4.535-5.009-12.454-12.52-29.778-19.701-47.531-19.701H67.244c-17.951 0-34.834 7-47.539 19.708-1.608 1.604-3.099 3.216-4.575 5.067-6.97 8.509-11.747 18.659-13.824 29.428A64.963 64.963 0 000 123.435v265.137c0 9.224 1.874 18.206 5.589 26.745 3.215 7.583 8.093 14.772 14.112 20.788a75.763 75.763 0 004.63 4.258c12.034 9.966 27.272 15.45 42.913 15.45h377.51c15.742 0 30.965-5.505 42.967-15.56a58.23 58.23 0 004.578-4.148c5.818-5.812 10.442-12.49 13.766-19.854l.438-1.05c3.646-8.377 5.497-17.33 5.497-26.628V123.435c0-4.375-.422-8.786-1.254-13.074zM34.823 99.104c.951-1.392 2.165-2.821 3.714-4.382 7.689-7.685 17.886-11.914 28.706-11.914h377.51c10.915 0 21.115 4.236 28.719 11.929a40.528 40.528 0 013.661 4.272l2.887 3.88-201.5 175.616c-6.212 5.446-14.21 8.443-22.523 8.443-8.231 0-16.222-2.99-22.508-8.436L32.19 102.939l2.633-3.835zm-8.068 291.809c-.109-.722-.134-1.524-.134-2.341V128.925l156.37 136.411L28.199 400.297l-1.444-9.384zm438.144 32.927c-6.052 3.492-13.022 5.344-20.145 5.344H67.244c-7.127 0-14.094-1.852-20.142-5.344l-6.328-3.668L200.71 280.793l17.528 15.246c10.514 9.128 23.922 14.16 37.761 14.16 13.89 0 27.32-5.032 37.827-14.16l17.521-15.253L471.228 420.18l-6.329 3.66zm20.473-35.268c0 .803-.015 1.597-.116 2.304l-1.386 9.472-154.858-134.939 156.36-136.418v259.581z"/></svg><svg viewBox="0 0 48 48" id="git" xmlns="http://www.w3.org/2000/svg"><defs><style>.ba{fill:none;stroke:#000;stroke-linecap:round;stroke-linejoin:round}</style></defs><path class="ba" d="M4.21 22.12a2.87 2.87 0 000 3.77L22.12 43.8a2.87 2.87 0 003.77 0l17.9-17.91a2.85 2.85 0 000-3.77L25.89 4.21a2.68 2.68 0 00-1.89-.7 2.66 2.66 0 00-1.88.71zM26.33 17.85l3.82 3.82M17.4 8.92l4.27 4.27"/><circle class="ba" cx="24" cy="32.41" r="3.3"/><circle class="ba" cx="24" cy="15.52" r="3.3"/><circle class="ba" cx="32.48" cy="24" r="3.3"/><path class="ba" d="M24 29.11V18.82"/></svg><svg viewBox="0 0 256 256" id="phone" xmlns="http://www.w3.org/2000/svg"><path d="M155.553 38.967a4 4 0 014.897-2.831 84.155 84.155 0 0159.414 59.414 4 4 0 11-7.728 2.066 76.133 76.133 0 00-53.752-53.752 4 4 0 01-2.831-4.897zM150.1 74.78a44.078 44.078 0 0131.119 31.12 4 4 0 107.728-2.067 52.097 52.097 0 00-36.781-36.781 4 4 0 10-2.066 7.728zm77.488 99.797A52.065 52.065 0 01176 220C98.804 220 36 157.196 36 80a52.065 52.065 0 0145.42-51.588 12.02 12.02 0 0112.476 7.192l20.091 46.876a11.977 11.977 0 01-.99 11.3L96.361 119.2a3.938 3.938 0 00-.29 3.86 80.54 80.54 0 0037.198 37.029 3.935 3.935 0 003.87-.318l25.036-16.695a11.964 11.964 0 0111.384-1.046l46.838 20.074a12.019 12.019 0 017.19 12.474zm-10.344-5.121l-46.836-20.073a3.993 3.993 0 00-3.796.348l-25.035 16.695a11.965 11.965 0 01-11.787.867 88.587 88.587 0 01-40.908-40.724v.001a11.969 11.969 0 01.786-11.753L106.304 89.4a3.995 3.995 0 00.33-3.768L86.543 38.756a4 4 0 00-3.644-2.437 3.713 3.713 0 00-.475.03A44.048 44.048 0 0044 80c0 72.785 59.215 132 132 132a44.048 44.048 0 0043.65-38.425 3.98 3.98 0 00-2.406-4.118z"/></svg><svg viewBox="0 0 48 48" id="telega" data-name="Layer 2" xmlns="http://www.w3.org/2000/svg"><defs><style>.dcls-1{fill:none;stroke:#000;stroke-linecap:round;stroke-linejoin:round}</style></defs><path class="dcls-1" d="M40.83 8.48c1.14 0 2 1 1.54 2.86l-5.58 26.3c-.39 1.87-1.52 2.32-3.08 1.45L20.4 29.26a.4.4 0 010-.65l15.37-13.88c.7-.62-.15-.92-1.07-.36L15.41 26.54a.46.46 0 01-.4.05L6.82 24C5 23.47 5 22.22 7.23 21.33L40 8.69a2.16 2.16 0 01.83-.21z"/></svg></svg>